<svg width="26" height="26" viewBox="0 0 26 26" fill="none" xmlns="http://www.w3.org/2000/svg">
<g id="&#240;&#159;&#166;&#134; emoji &#34;gear&#34;">
<g id="Group">
<path id="Vector" d="M13.0006 15.6088C14.3968 15.6088 15.5286 14.4408 15.5286 13.0001C15.5286 11.5593 14.3968 10.3914 13.0006 10.3914C11.6045 10.3914 10.4727 11.5593 10.4727 13.0001C10.4727 14.4408 11.6045 15.6088 13.0006 15.6088Z" stroke="white" stroke-width="0.7" stroke-miterlimit="10" stroke-linecap="round" stroke-linejoin="round"/>
<path id="Vector_2" d="M13.0013 18.2174C15.7936 18.2174 18.0572 15.8815 18.0572 13C18.0572 10.1185 15.7936 7.78259 13.0013 7.78259C10.2089 7.78259 7.94531 10.1185 7.94531 13C7.94531 15.8815 10.2089 18.2174 13.0013 18.2174Z" stroke="white" stroke-width="0.7" stroke-miterlimit="10" stroke-linecap="round" stroke-linejoin="round"/>
<path id="Vector_3" d="M10.5326 5.06211C10.4118 5.57838 9.8703 5.88641 9.39883 5.67344C9.3914 5.67005 9.38386 5.6666 9.37633 5.66305L5.76856 3.21594L5.39948 3.57249L3.55396 5.35528L5.831 9.25998C6.20327 10.1072 5.28572 10.3423 5.28572 10.3423L1 11.4418L1.08337 14.0491L1.10006 14.5706L5.32794 15.4727C5.80931 15.6627 6.01054 16.2529 5.75056 16.7121L5.73398 16.7414L3.45693 20.6461L5.30245 22.4289L5.67154 22.7854L9.27931 20.3383C9.28684 20.3348 9.29447 20.3316 9.30181 20.3279C9.30181 20.3279 9.30767 20.3257 9.31859 20.3221C9.90538 20.1255 10.5285 20.5028 10.6733 21.1216L11.5807 25H12.0863H14.6142L15.5682 20.9222C15.6908 20.3984 16.2439 20.1178 16.7207 20.3376L20.3285 22.7847L20.6975 22.4282L22.5431 20.6454L20.266 16.7407L20.2494 16.7114C19.9894 16.2522 20.1907 15.662 20.6721 15.472L24.8999 14.5698L24.9166 14.0484L25 11.4411L20.7143 10.3416C20.7143 10.3416 19.7967 10.1065 20.169 9.25925L22.446 5.35455L20.6005 3.57176L20.2314 3.21521L16.6237 5.66232C16.1469 5.88208 15.5938 5.60149 15.4712 5.07766L14.5172 1H11.9892H11.4836L10.5326 5.06211Z" stroke="white" stroke-width="0.7" stroke-miterlimit="10" stroke-linecap="round" stroke-linejoin="round"/>
</g>
</g>
</svg>
