<svg width="24" height="24" viewBox="0 0 24 24" fill="none" xmlns="http://www.w3.org/2000/svg">
<g id="entypo:chat" clip-path="url(#clip0_115_6365)">
<path id="Vector" d="M15.25 14.9912V16.8C15.25 17.9267 14.3267 18.85 13.2 18.85H7.2H7.05503L6.95251 18.9525L3.95 21.955V19.2V18.85H3.6H2.4C1.2733 18.85 0.35 17.9267 0.35 16.8V9.6C0.35 8.4733 1.2733 7.55 2.4 7.55H6.61V14.64V14.6412V14.9912H6.96H15.25ZM15.25 14.9912L15.3592 14.9912C15.3594 14.9912 15.3595 14.9912 15.3597 14.9912M15.25 14.9912H15.3597M15.3597 14.9912H15.36V14.6412L15.3597 14.9912ZM17.0475 12.9525L16.945 12.85H16.8H8.75V3.6C8.75 2.4733 9.6733 1.55 10.8 1.55H21.6C22.7267 1.55 23.65 2.4733 23.65 3.6V10.8C23.65 11.9278 22.7268 12.85 21.6 12.85H20.4H20.05V13.2V15.955L17.0475 12.9525Z" stroke="white" stroke-width="0.7"/>
</g>
<defs>
<clipPath id="clip0_115_6365">
<rect width="24" height="24" fill="white"/>
</clipPath>
</defs>
</svg>
