<svg width="24" height="24" viewBox="0 0 24 24" fill="none" xmlns="http://www.w3.org/2000/svg">
<g id="&#240;&#159;&#166;&#134; icon &#34;smile&#34;">
<path id="Vector" d="M12 0C5.3726 0 0 5.3726 0 12C0 18.6274 5.3726 24 12 24C18.6274 24 24 18.6274 24 12C24 5.3726 18.6274 0 12 0ZM19.3539 19.3539C17.5304 21.1719 15.0954 22.246 12.5233 22.3667C9.95117 22.4875 7.42624 21.6463 5.44046 20.007C3.45469 18.3678 2.15033 16.048 1.78154 13.4996C1.41275 10.9512 2.00595 8.3568 3.44556 6.22189C4.88516 4.08697 7.06804 2.56449 9.56886 1.95111C12.0697 1.33773 14.7093 1.67739 16.9734 2.9039C19.2374 4.13041 20.9638 6.15591 21.816 8.58573C22.6682 11.0156 22.5853 13.6756 21.5833 16.0477C21.0612 17.2836 20.304 18.4065 19.3539 19.3539Z" fill="white"/>
<path id="Vector_2" d="M8.7998 9.19995H6.7998V11.2H8.7998V9.19995Z" fill="white"/>
<path id="Vector_3" d="M17.1992 9.19995H15.1992V11.2H17.1992V9.19995Z" fill="white"/>
<path id="Vector_4" d="M16.1137 14.56C15.8042 15.3409 15.2667 16.0104 14.5711 16.4813C13.8755 16.9522 13.0542 17.2027 12.2143 17.2H11.7843C10.9442 17.2027 10.1229 16.9523 9.42731 16.4814C8.73171 16.0105 8.19413 15.3409 7.88466 14.56L7.82071 14.4H6.09766L6.39926 15.154C6.82975 16.2303 7.57286 17.1528 8.5327 17.8027C9.49255 18.4526 10.6251 18.7999 11.7843 18.8H12.2143C13.3734 18.7999 14.506 18.4526 15.4658 17.8027C16.4257 17.1528 17.1688 16.2303 17.5993 15.154L17.9009 14.4H16.1777L16.1137 14.56Z" fill="white"/>
</g>
</svg>
